#!OML:ASF F:\VICON\USERDATA\INSTALL\rory3\rory3.ASF
:FULLY-SPECIFIED
:DEGREES
225
root 0.0633295 16.7242 -4.18099 9.13691 -2.09673 -3.12828
lowerback -1.81088 2.58396 4.41891
upperback -1.77683 3.40145 1.08508
thorax -0.621252 1.66395 -1.3092
lowerneck -17.2063 0.427361 -0.656661
upperneck 41.2769 2.1022 -2.38002
head 18.4794 0.426805 -0.574549
rclavicle -1.31446e-014 -4.77083e-015
rhumerus -37.509 -9.63189 -73.8942
rradius 33.3521
rwrist -14.8834
rhand -5.18733 12.8701
rfingers 7.12502
rthumb 20.6134 -16.0554
lclavicle -1.31446e-014 -4.77083e-015
lhumerus -55.4663 32.3326 54.1286
lradius 25.7664
lwrist -10.9571
lhand 5.27777 18.3129
lfingers 7.12502
lthumb 30.6349 45.7833
rfemur -20.7385 16.9646 26.9454
rtibia 32.8182
rfoot -19.506 -19.8681
rtoes 2.9645
lfemur -32.8079 5.44883 -20.4813
ltibia 61.2294
lfoot -16.7306 15.3331
ltoes -11.8954
226
root 0.0621198 16.7268 -4.04592 9.25699 -1.88812 -2.9147
lowerback -1.84628 2.49271 4.37208
upperback -1.87961 3.28142 0.950723
thorax -0.708381 1.60073 -1.42434
lowerneck -17.2368 0.367204 -0.702671
upperneck 41.4062 2.02144 -2.35993
head 18.564 0.388033 -0.575212
rclavicle -1.62755e-014 -3.97569e-015
rhumerus -37.4003 -9.37149 -74.1128
rradius 33.9339
rwrist -15.1949
rhand -5.10778 12.5389
rfingers 7.12502
rthumb 20.6899 -16.3782
lclavicle -1.62755e-014 -3.97569e-015
lhumerus -56.3467 32.8379 52.9258
lradius 24.8623
lwrist -12.0873
lhand 5.40431 18.021
lfingers 7.12502
lthumb 30.7555 45.4687
rfemur -20.2021 16.843 26.8354
rtibia 32.717
rfoot -20.222 -19.7134
rtoes 5.08319
lfemur -33.7348 5.14211 -20.8042
ltibia 60.02
lfoot -17.1891 15.3866
ltoes -12.3954
227
root 0.0672859 16.7296 -3.90653 9.29479 -1.66685 -2.60973
lowerback -1.77458 2.40902 4.25506
upperback -2.0141 3.17907 0.823128
thorax -0.891456 1.54487 -1.49899
lowerneck -17.0602 0.32591 -0.76771
upperneck 41.3321 1.96947 -2.34764
head 18.4687 0.360723 -0.567102
rclavicle 1.97294e-014 2.46493e-014
rhumerus -37.3505 -9.2071 -74.1845
rradius 34.396
rwrist -15.4457
rhand -5.04766 12.3442
rfingers 7.12502
rthumb 20.7476 -16.5666
lclavicle 1.97294e-014 2.46493e-014
lhumerus -57.3921 33.3658 51.55
lradius 24.0243
lwrist -13.3304
lhand 5.58167 17.3968
lfingers 7.12502
lthumb 30.9246 44.8126
rfemur -19.5175 16.4323 26.6447
rtibia 32.5022
rfoot -20.3146 -19.6565
rtoes 6.40101
lfemur -34.4458 4.69431 -21.2471
ltibia 58.6316
lfoot -17.4033 15.7356
ltoes -12.5756
228
root 0.0734213 16.7301 -3.76638 9.29493 -1.55956 -2.64517
lowerback -1.78071 2.32189 4.44666
upperback -2.04813 3.06188 0.83413
thorax -0.920899 1.48293 -1.59678
lowerneck -16.8632 0.410574 -0.871374
upperneck 41.1569 2.12335 -2.33206
head 18.3106 0.410382 -0.507961
rclavicle -5.00937e-014 -3.18055e-015
rhumerus -37.1257 -8.6067 -74.3876
rradius 34.9018
rwrist -15.8161
rhand -4.89337 12.2343
rfingers 7.12502
rthumb 20.8959 -16.6603
lclavicle -5.00937e-014 -3.18055e-015
lhumerus -58.4681 34.1281 50.142
lradius 23.2966
lwrist -14.4967
lhand 5.7949 17.3486
lfingers 7.12502
lthumb 31.1279 44.7257
rfemur -18.6829 16.2224 26.8456
rtibia 32.1109
rfoot -20.1554 -19.8598
rtoes 9.14908
lfemur -35.0416 4.39077 -21.2704
ltibia 57.158
lfoot -17.7602 15.8818
ltoes -11.7917
229
root 0.0666409 16.7324 -3.63354 9.37896 -1.45983 -2.78114
lowerback -1.76253 2.27498 4.5977
upperback -2.08681 3.00024 0.817676
thorax -0.966513 1.44862 -1.70039
lowerneck -16.8758 0.414343 -0.793277
upperneck 41.0429 2.11086 -2.37266
head 18.2472 0.412159 -0.542376
rclavicle 1.91579e-014 3.37934e-015
rhumerus -36.8969 -8.40007 -74.6363
rradius 35.4629
rwrist -16.135
rhand -4.87073 12.3334
rfingers 7.12502
rthumb 20.9176 -16.5587
lclavicle 1.91579e-014 3.37934e-015
lhumerus -59.1887 34.663 49.0204
lradius 22.7165
lwrist -15.4423
lhand 5.91967 17.7775
lfingers 7.12502
lthumb 31.2468 45.1316
rfemur -17.9004 16.4749 27.1713
rtibia 31.5609
rfoot -20.2868 -20.1669
rtoes 11.8788
lfemur -35.7681 4.19589 -21.0801
ltibia 55.5867
lfoot -18.1852 15.6369
ltoes -11.4927
230
root 0.056075 16.7365 -3.50347 9.45654 -1.45129 -2.94355
lowerback -1.66846 2.28417 4.73818
upperback -2.1025 3.01734 0.798224
thorax -1.02653 1.4537 -1.80261
lowerneck -17.005 0.374705 -0.833875
upperneck 41.0016 2.0323 -2.29802
head 18.254 0.383664 -0.515043
rclavicle -2.71838e-014 1.88845e-014
rhumerus -36.5848 -8.2805 -74.8611
rradius 35.7939
rwrist -16.4064
rhand -4.95803 12.6638
rfingers 7.12502
rthumb 20.8337 -16.2377
lclavicle -2.71838e-014 1.88845e-014
lhumerus -59.6165 34.7874 48.4497
lradius 22.3807
lwrist -15.71
lhand 6.03311 18.2243
lfingers 7.12502
lthumb 31.3549 45.5575
rfemur -17.0491 16.8921 27.5378
rtibia 30.8344
rfoot -20.323 -20.6413
rtoes 11.9043
lfemur -36.4709 4.04342 -20.8183
ltibia 53.9186
lfoot -18.5472 15.406
ltoes -12.6904
231
root 0.0539984 16.7513 -3.36065 9.53905 -1.52589 -2.8435
lowerback -1.7148 2.33391 4.64603
upperback -2.13603 3.08234 0.733898
thorax -1.03185 1.48639 -1.81511
lowerneck -17.1586 0.390144 -0.804845
upperneck 41.0797 2.0537 -2.2968
head 18.3431 0.395302 -0.516236
rclavicle 3.62782e-015 -2.18663e-015
rhumerus -36.4563 -8.16894 -74.9182
rradius 36.1751
rwrist -16.5551
rhand -5.06141 12.839
rfingers 7.12502
rthumb 20.7344 -16.0733
lclavicle 3.62782e-015 -2.18663e-015
lhumerus -60.0427 34.667 48.1092
lradius 22.1249
lwrist -15.7495
lhand 6.20564 18.327
lfingers 7.12502
lthumb 31.5192 45.6282
rfemur -16.1002 16.9929 27.5745
rtibia 29.9937
rfoot -20.0961 -20.8744
rtoes 11.0597
lfemur -36.9472 3.82377 -20.8833
ltibia 52.0702
lfoot -18.6312 15.6382
ltoes -15.4437
232
root 0.0569391 16.7734 -3.20953 9.5729 -1.58484 -2.84965
lowerback -1.66997 2.36059 4.75164
upperback -2.28895 3.12443 0.657114
thorax -1.20236 1.49938 -1.95792
lowerneck -17.218 0.467402 -0.609255
upperneck 41.273 2.15475 -2.39627
head 18.4821 0.450435 -0.580954
rclavicle 1.68843e-014 5.1684e-015
rhumerus -36.5284 -8.08959 -75.0206
rradius 36.5823
rwrist -16.6977
rhand -4.84135 12.749
rfingers 7.12502
rthumb 20.9458 -16.14
lclavicle 1.68843e-014 5.1684e-015
lhumerus -60.9124 34.6431 47.124
lradius 21.8314
lwrist -16.1303
lhand 6.43924 18.5604
lfingers 7.12502
lthumb 31.7418 45.8178
rfemur -15.0802 17.054 27.7052
rtibia 29.1372
rfoot -20.1105 -20.9324
rtoes 10.8582
lfemur -37.1919 3.5356 -20.8236
ltibia 50.0681
lfoot -18.7204 15.9865
ltoes -16.1721
233
root 0.059362 16.7904 -3.0629 9.56955 -1.44758 -2.93339
lowerback -1.56265 2.24626 4.9701
upperback -2.43032 2.98182 0.61477
thorax -1.40566 1.41744 -2.13312
lowerneck -17.0354 0.518535 -0.613567
upperneck 41.2368 2.21156 -2.35586
head 18.4101 0.478676 -0.549691
rclavicle -2.18539e-014 -1.25234e-014
rhumerus -36.4771 -7.87311 -75.2069
rradius 36.8601
rwrist -16.7081
rhand -4.73188 12.8723
rfingers 7.12502
rthumb 21.051 -16.0051
lclavicle -2.18539e-014 -1.25234e-014
lhumerus -61.9511 34.5959 46.0563
lradius 21.6621
lwrist -16.3736
lhand 6.50449 18.673
lfingers 7.12502
lthumb 31.8039 45.9181
rfemur -14.0442 17.0323 27.9892
rtibia 28.2593
rfoot -19.8618 -21.3255
rtoes 9.89718
lfemur -37.3926 3.03327 -20.5903
ltibia 47.971
lfoot -18.8558 16.1445
ltoes -15.5011
234
root 0.0605152 16.8041 -2.9287 9.72733 -1.34085 -2.80212
lowerback -1.64465 2.10308 4.8593
upperback -2.47475 2.78773 0.586441
thorax -1.42303 1.32088 -2.10053
lowerneck -16.9293 0.584901 -0.620581
upperneck 40.969 2.32038 -2.4024
head 18.2237 0.515971 -0.545709
rclavicle 2.27857e-014 3.77691e-015
rhumerus -36.1115 -7.41067 -75.4352
rradius 37.0868
rwrist -16.8682
rhand -4.98891 13.036
rfingers 7.12502
rthumb 20.8041 -15.8687
lclavicle 2.27857e-014 3.77691e-015
lhumerus -62.4531 34.4205 45.8897
lradius 21.7409
lwrist -15.8528
lhand 6.37972 18.8365
lfingers 7.12502
lthumb 31.6851 46.1051
rfemur -13.2034 16.7719 28.0123
rtibia 27.325
rfoot -19.0673 -21.7857
rtoes 7.64923
lfemur -37.7515 2.53467 -20.5758
ltibia 45.7583
lfoot -19.0028 16.1004
ltoes -15.3889
235
root 0.061936 16.8231 -2.79258 9.92564 -1.34673 -2.80523
lowerback -1.89321 2.07316 4.88125
upperback -2.36416 2.72849 0.567545
thorax -1.17205 1.29837 -2.12043
lowerneck -16.9405 0.499893 -0.84355
upperneck 40.4877 2.18798 -2.26671
head 17.9348 0.450463 -0.46248
rclavicle -1.55922e-014 -8.94531e-015
rhumerus -35.4976 -7.23599 -75.5614
rradius 37.2717
rwrist -16.9771
rhand -5.15173 12.5284
rfingers 7.12502
rthumb 20.6476 -16.3933
lclavicle -1.55922e-014 -8.94531e-015
lhumerus -63.0556 35.2698 44.5943
lradius 21.2086
lwrist -16.7813
lhand 5.94162 18.8676
lfingers 7.12502
lthumb 31.2677 46.2177
rfemur -12.2919 16.8753 28.1266
rtibia 26.2865
rfoot -18.5185 -22.2072
rtoes 6.64153
lfemur -38.1152 2.04606 -20.355
ltibia 43.4987
lfoot -18.9133 16.2773
ltoes -16.5169
236
root 0.0639498 16.8403 -2.64559 10.0192 -1.26647 -2.88035
lowerback -2.13755 2.04411 4.98598
upperback -2.20549 2.66804 0.570514
thorax -0.871768 1.27628 -2.16359
lowerneck -17.0007 0.323595 -1.49002
upperneck 40.0673 1.92157 -1.75959
head 17.6875 0.318339 -0.159736
rclavicle -2.60408e-014 -2.18663e-015
rhumerus -34.968 -7.15025 -75.6372
rradius 37.5428
rwrist -17.0987
rhand -5.07345 12.2919
rfingers 7.12502
rthumb 20.7228 -16.6216
lclavicle -2.60408e-014 -2.18663e-015
lhumerus -63.7261 36.2171 43.0051
lradius 20.4941
lwrist -17.9868
lhand 5.70643 19.0418
lfingers 7.12502
lthumb 31.0435 46.435
rfemur -11.1711 17.0081 28.3386
rtibia 25.2228
rfoot -18.5347 -22.3487
rtoes 7.46655
lfemur -38.2701 1.46019 -20.0248
ltibia 41.1504
lfoot -18.4421 16.9237
ltoes -18.8465
237
root 0.0614804 16.8537 -2.49908 10.0991 -1.21768 -3.00751
lowerback -2.24425 2.0324 5.10272
upperback -2.28399 2.64681 0.548699
thorax -0.888729 1.26233 -2.24915
lowerneck -17.0206 0.381675 -1.43037
upperneck 40.0589 1.97892 -1.73229
head 17.688 0.3543 -0.146584
rclavicle -3.21783e-015 5.76476e-015
rhumerus -34.9746 -7.06303 -75.7447
rradius 37.8183
rwrist -17.1978
rhand -5.15457 12.0525
rfingers 7.12502
rthumb 20.6449 -16.8695
lclavicle -3.21783e-015 5.76476e-015
lhumerus -64.4063 36.2017 42.1007
lradius 20.2714
lwrist -18.4525
lhand 5.68887 19.1183
lfingers 7.12502
lthumb 31.0268 46.5147
rfemur -10.027 17.2178 28.6186
rtibia 24.0536
rfoot -18.6056 -22.4515
rtoes 8.74267
lfemur -38.3665 0.968449 -19.6029
ltibia 38.7792
lfoot -18.7063 17.1088
ltoes -18.2354
238
root 0.0609277 16.8684 -2.35728 10.2157 -1.31838 -2.94053
lowerback -2.22122 1.99365 4.98327
upperback -2.48761 2.60497 0.50364
thorax -1.11755 1.2339 -2.23524
lowerneck -17.0545 0.654844 -0.711093
upperneck 40.1904 2.40953 -2.36339
head 17.8003 0.54655 -0.484277
rclavicle -1.33061e-014 -1.64991e-014
rhumerus -35.1436 -6.90514 -75.8481
rradius 38.0532
rwrist -17.1804
rhand -5.26458 12.2794
rfingers 7.12502
rthumb 20.5392 -16.6541
lclavicle -1.33061e-014 -1.64991e-014
lhumerus -65.4786 36.2013 40.8478
lradius 20.0392
lwrist -19.3296
lhand 5.60495 18.6382
lfingers 7.12502
lthumb 30.9468 46.0498
rfemur -8.9394 17.4813 28.6445
rtibia 22.8015
rfoot -18.2438 -22.6247
rtoes 8.95317
lfemur -38.3813 0.542636 -19.3943
ltibia 36.3941
lfoot -19.3346 17.2058
ltoes -16.9765
